<mxfile host="app.diagrams.net" agent="Mozilla/5.0 (Windows NT 10.0; Win64; x64) AppleWebKit/537.36 (KHTML, like Gecko) Chrome/138.0.0.0 Safari/537.36 Edg/138.0.0.0" version="28.0.4">
  <diagram name="Page-1" id="6QqiZTx7fy5d24P5xfJG">
    <mxGraphModel dx="985" dy="543" grid="1" gridSize="10" guides="1" tooltips="1" connect="1" arrows="1" fold="1" page="1" pageScale="1" pageWidth="850" pageHeight="1100" math="0" shadow="0">
      <root>
        <mxCell id="0" />
        <mxCell id="1" parent="0" />
        <mxCell id="6dELSMDstAYBvVttdxLl-1" value="ทบทวนสัญลักษณ์" style="swimlane;fontFamily=Sarabun;fontSource=https%3A%2F%2Ffonts.googleapis.com%2Fcss%3Ffamily%3DSarabun;" vertex="1" parent="1">
          <mxGeometry x="92.5" y="50" width="650" height="290" as="geometry" />
        </mxCell>
        <mxCell id="6dELSMDstAYBvVttdxLl-2" value="&lt;font data-font-src=&quot;https://fonts.googleapis.com/css?family=Sarabun&quot; face=&quot;Sarabun&quot;&gt;เริ่มต้น&lt;/font&gt;" style="ellipse;whiteSpace=wrap;html=1;" vertex="1" parent="6dELSMDstAYBvVttdxLl-1">
          <mxGeometry x="20" y="40" width="130" height="30" as="geometry" />
        </mxCell>
        <mxCell id="6dELSMDstAYBvVttdxLl-3" value="" style="endArrow=classic;html=1;rounded=0;" edge="1" parent="6dELSMDstAYBvVttdxLl-1">
          <mxGeometry width="50" height="50" relative="1" as="geometry">
            <mxPoint x="84.5" y="70" as="sourcePoint" />
            <mxPoint x="84.5" y="120" as="targetPoint" />
          </mxGeometry>
        </mxCell>
        <mxCell id="6dELSMDstAYBvVttdxLl-4" value="&lt;font face=&quot;Sarabun&quot;&gt;สิ้นสุด&lt;/font&gt;" style="ellipse;whiteSpace=wrap;html=1;" vertex="1" parent="6dELSMDstAYBvVttdxLl-1">
          <mxGeometry x="150" y="90" width="130" height="30" as="geometry" />
        </mxCell>
        <mxCell id="6dELSMDstAYBvVttdxLl-5" value="" style="endArrow=classic;html=1;rounded=0;" edge="1" parent="6dELSMDstAYBvVttdxLl-1">
          <mxGeometry width="50" height="50" relative="1" as="geometry">
            <mxPoint x="214.5" y="40" as="sourcePoint" />
            <mxPoint x="214.5" y="90" as="targetPoint" />
          </mxGeometry>
        </mxCell>
        <mxCell id="6dELSMDstAYBvVttdxLl-6" value="กระบวนการ" style="rounded=0;whiteSpace=wrap;html=1;fontFamily=Sarabun;fontSource=https%3A%2F%2Ffonts.googleapis.com%2Fcss%3Ffamily%3DSarabun;" vertex="1" parent="6dELSMDstAYBvVttdxLl-1">
          <mxGeometry x="320" y="70" width="120" height="30" as="geometry" />
        </mxCell>
        <mxCell id="6dELSMDstAYBvVttdxLl-7" value="" style="endArrow=classic;html=1;rounded=0;" edge="1" parent="6dELSMDstAYBvVttdxLl-1">
          <mxGeometry width="50" height="50" relative="1" as="geometry">
            <mxPoint x="379" y="40" as="sourcePoint" />
            <mxPoint x="379.5" y="70" as="targetPoint" />
          </mxGeometry>
        </mxCell>
        <mxCell id="6dELSMDstAYBvVttdxLl-8" value="" style="endArrow=classic;html=1;rounded=0;" edge="1" parent="6dELSMDstAYBvVttdxLl-1">
          <mxGeometry width="50" height="50" relative="1" as="geometry">
            <mxPoint x="379.75" y="100" as="sourcePoint" />
            <mxPoint x="380.25" y="130" as="targetPoint" />
          </mxGeometry>
        </mxCell>
        <mxCell id="6dELSMDstAYBvVttdxLl-9" value="ประโยคเงื่อนไข" style="rhombus;whiteSpace=wrap;html=1;fontFamily=Sarabun;fontSource=https%3A%2F%2Ffonts.googleapis.com%2Fcss%3Ffamily%3DSarabun;" vertex="1" parent="6dELSMDstAYBvVttdxLl-1">
          <mxGeometry x="490" y="60" width="100" height="60" as="geometry" />
        </mxCell>
        <mxCell id="6dELSMDstAYBvVttdxLl-10" value="" style="endArrow=classic;html=1;rounded=0;" edge="1" parent="6dELSMDstAYBvVttdxLl-1">
          <mxGeometry width="50" height="50" relative="1" as="geometry">
            <mxPoint x="539.71" y="30" as="sourcePoint" />
            <mxPoint x="540.21" y="60" as="targetPoint" />
          </mxGeometry>
        </mxCell>
        <mxCell id="6dELSMDstAYBvVttdxLl-11" value="" style="endArrow=classic;html=1;rounded=0;" edge="1" parent="6dELSMDstAYBvVttdxLl-1">
          <mxGeometry width="50" height="50" relative="1" as="geometry">
            <mxPoint x="539.71" y="120" as="sourcePoint" />
            <mxPoint x="540" y="175" as="targetPoint" />
          </mxGeometry>
        </mxCell>
        <mxCell id="6dELSMDstAYBvVttdxLl-12" value="จริง" style="edgeLabel;html=1;align=center;verticalAlign=middle;resizable=0;points=[];fontFamily=Sarabun;fontSource=https%3A%2F%2Ffonts.googleapis.com%2Fcss%3Ffamily%3DSarabun;" vertex="1" connectable="0" parent="6dELSMDstAYBvVttdxLl-11">
          <mxGeometry x="-0.4142" y="-1" relative="1" as="geometry">
            <mxPoint as="offset" />
          </mxGeometry>
        </mxCell>
        <mxCell id="6dELSMDstAYBvVttdxLl-13" value="" style="endArrow=classic;html=1;rounded=0;exitX=1;exitY=0.5;exitDx=0;exitDy=0;" edge="1" parent="6dELSMDstAYBvVttdxLl-1" source="6dELSMDstAYBvVttdxLl-9">
          <mxGeometry width="50" height="50" relative="1" as="geometry">
            <mxPoint x="620" y="95" as="sourcePoint" />
            <mxPoint x="610" y="175" as="targetPoint" />
            <Array as="points">
              <mxPoint x="610" y="90" />
            </Array>
          </mxGeometry>
        </mxCell>
        <mxCell id="6dELSMDstAYBvVttdxLl-14" value="&lt;font data-font-src=&quot;https://fonts.googleapis.com/css?family=Sarabun&quot; face=&quot;Sarabun&quot;&gt;เท็จ&lt;/font&gt;" style="edgeLabel;html=1;align=center;verticalAlign=middle;resizable=0;points=[];" vertex="1" connectable="0" parent="6dELSMDstAYBvVttdxLl-13">
          <mxGeometry x="-0.0019" y="-2" relative="1" as="geometry">
            <mxPoint as="offset" />
          </mxGeometry>
        </mxCell>
        <mxCell id="6dELSMDstAYBvVttdxLl-15" value="&lt;font data-font-src=&quot;https://fonts.googleapis.com/css?family=Sarabun&quot; face=&quot;Sarabun&quot;&gt;ฟังก์ชัน/โมดูล&lt;/font&gt;" style="shape=process;whiteSpace=wrap;html=1;backgroundOutline=1;" vertex="1" parent="6dELSMDstAYBvVttdxLl-1">
          <mxGeometry x="25" y="180" width="120" height="30" as="geometry" />
        </mxCell>
        <mxCell id="6dELSMDstAYBvVttdxLl-16" value="" style="endArrow=classic;html=1;rounded=0;" edge="1" parent="6dELSMDstAYBvVttdxLl-1">
          <mxGeometry width="50" height="50" relative="1" as="geometry">
            <mxPoint x="84.70999999999998" y="150" as="sourcePoint" />
            <mxPoint x="85.20999999999998" y="180" as="targetPoint" />
          </mxGeometry>
        </mxCell>
        <mxCell id="6dELSMDstAYBvVttdxLl-17" value="" style="endArrow=classic;html=1;rounded=0;" edge="1" parent="6dELSMDstAYBvVttdxLl-1">
          <mxGeometry width="50" height="50" relative="1" as="geometry">
            <mxPoint x="84.70999999999998" y="210" as="sourcePoint" />
            <mxPoint x="85.20999999999998" y="240" as="targetPoint" />
          </mxGeometry>
        </mxCell>
        <mxCell id="6dELSMDstAYBvVttdxLl-18" value="" style="strokeWidth=2;html=1;shape=mxgraph.flowchart.start_2;whiteSpace=wrap;" vertex="1" parent="6dELSMDstAYBvVttdxLl-1">
          <mxGeometry x="205" y="185" width="20" height="20" as="geometry" />
        </mxCell>
        <mxCell id="6dELSMDstAYBvVttdxLl-19" value="" style="endArrow=classic;html=1;rounded=0;" edge="1" parent="6dELSMDstAYBvVttdxLl-1">
          <mxGeometry width="50" height="50" relative="1" as="geometry">
            <mxPoint x="214.70999999999998" y="155" as="sourcePoint" />
            <mxPoint x="215.20999999999998" y="185" as="targetPoint" />
          </mxGeometry>
        </mxCell>
        <mxCell id="6dELSMDstAYBvVttdxLl-20" value="" style="endArrow=classic;html=1;rounded=0;entryX=0;entryY=0.5;entryDx=0;entryDy=0;entryPerimeter=0;" edge="1" parent="6dELSMDstAYBvVttdxLl-1" target="6dELSMDstAYBvVttdxLl-18">
          <mxGeometry width="50" height="50" relative="1" as="geometry">
            <mxPoint x="189.99999999999997" y="155" as="sourcePoint" />
            <mxPoint x="190.49999999999997" y="185" as="targetPoint" />
            <Array as="points">
              <mxPoint x="190" y="180" />
            </Array>
          </mxGeometry>
        </mxCell>
        <mxCell id="6dELSMDstAYBvVttdxLl-21" value="" style="endArrow=classic;html=1;rounded=0;entryX=1;entryY=0.5;entryDx=0;entryDy=0;entryPerimeter=0;" edge="1" parent="6dELSMDstAYBvVttdxLl-1" target="6dELSMDstAYBvVttdxLl-18">
          <mxGeometry width="50" height="50" relative="1" as="geometry">
            <mxPoint x="239.99999999999997" y="155" as="sourcePoint" />
            <mxPoint x="240.49999999999997" y="185" as="targetPoint" />
            <Array as="points">
              <mxPoint x="240" y="180" />
            </Array>
          </mxGeometry>
        </mxCell>
        <mxCell id="6dELSMDstAYBvVttdxLl-22" value="" style="endArrow=classic;html=1;rounded=0;" edge="1" parent="6dELSMDstAYBvVttdxLl-1">
          <mxGeometry width="50" height="50" relative="1" as="geometry">
            <mxPoint x="214.70999999999998" y="205" as="sourcePoint" />
            <mxPoint x="215.20999999999998" y="235" as="targetPoint" />
          </mxGeometry>
        </mxCell>
        <mxCell id="6dELSMDstAYBvVttdxLl-23" value="&lt;font data-font-src=&quot;https://fonts.googleapis.com/css?family=Sarabun&quot; face=&quot;Sarabun&quot;&gt;ตัวเชื่อม&lt;/font&gt;" style="text;html=1;align=center;verticalAlign=middle;resizable=0;points=[];autosize=1;strokeColor=none;fillColor=none;" vertex="1" parent="6dELSMDstAYBvVttdxLl-1">
          <mxGeometry x="220" y="190" width="60" height="30" as="geometry" />
        </mxCell>
        <mxCell id="6dELSMDstAYBvVttdxLl-24" value="" style="endArrow=classic;html=1;rounded=0;" edge="1" parent="6dELSMDstAYBvVttdxLl-1">
          <mxGeometry width="50" height="50" relative="1" as="geometry">
            <mxPoint x="353.71" y="165" as="sourcePoint" />
            <mxPoint x="354.21" y="195" as="targetPoint" />
          </mxGeometry>
        </mxCell>
        <mxCell id="6dELSMDstAYBvVttdxLl-25" value="" style="verticalLabelPosition=bottom;verticalAlign=top;html=1;shape=offPageConnector;rounded=0;size=0.5;" vertex="1" parent="6dELSMDstAYBvVttdxLl-1">
          <mxGeometry x="339" y="195" width="30" height="30" as="geometry" />
        </mxCell>
        <mxCell id="6dELSMDstAYBvVttdxLl-26" value="" style="endArrow=classic;html=1;rounded=0;" edge="1" parent="6dELSMDstAYBvVttdxLl-1">
          <mxGeometry width="50" height="50" relative="1" as="geometry">
            <mxPoint x="405.71" y="195" as="sourcePoint" />
            <mxPoint x="406.21" y="225" as="targetPoint" />
          </mxGeometry>
        </mxCell>
        <mxCell id="6dELSMDstAYBvVttdxLl-27" value="" style="verticalLabelPosition=bottom;verticalAlign=top;html=1;shape=offPageConnector;rounded=0;size=0.5;" vertex="1" parent="6dELSMDstAYBvVttdxLl-1">
          <mxGeometry x="391" y="165" width="30" height="30" as="geometry" />
        </mxCell>
        <mxCell id="6dELSMDstAYBvVttdxLl-28" value="หน้าต่อไป" style="text;html=1;align=center;verticalAlign=middle;resizable=0;points=[];autosize=1;strokeColor=none;fillColor=none;fontFamily=Sarabun;fontSource=https%3A%2F%2Ffonts.googleapis.com%2Fcss%3Ffamily%3DSarabun;" vertex="1" parent="6dELSMDstAYBvVttdxLl-1">
          <mxGeometry x="345" y="220" width="70" height="30" as="geometry" />
        </mxCell>
        <mxCell id="6dELSMDstAYBvVttdxLl-29" value="ก" style="text;html=1;align=center;verticalAlign=middle;resizable=0;points=[];autosize=1;strokeColor=none;fillColor=none;fontFamily=Sarabun;fontSource=https%3A%2F%2Ffonts.googleapis.com%2Fcss%3Ffamily%3DSarabun;" vertex="1" parent="6dELSMDstAYBvVttdxLl-1">
          <mxGeometry x="339" y="190" width="30" height="30" as="geometry" />
        </mxCell>
        <mxCell id="6dELSMDstAYBvVttdxLl-30" value="ก" style="text;html=1;align=center;verticalAlign=middle;resizable=0;points=[];autosize=1;strokeColor=none;fillColor=none;fontFamily=Sarabun;fontSource=https%3A%2F%2Ffonts.googleapis.com%2Fcss%3Ffamily%3DSarabun;" vertex="1" parent="6dELSMDstAYBvVttdxLl-1">
          <mxGeometry x="391" y="160" width="30" height="30" as="geometry" />
        </mxCell>
        <mxCell id="6dELSMDstAYBvVttdxLl-31" value="แสดงผล/รับค่า" style="shape=parallelogram;perimeter=parallelogramPerimeter;whiteSpace=wrap;html=1;fixedSize=1;fontFamily=Sarabun;fontSource=https%3A%2F%2Ffonts.googleapis.com%2Fcss%3Ffamily%3DSarabun;" vertex="1" parent="6dELSMDstAYBvVttdxLl-1">
          <mxGeometry x="450" y="210" width="120" height="30" as="geometry" />
        </mxCell>
        <mxCell id="6dELSMDstAYBvVttdxLl-32" value="" style="endArrow=classic;html=1;rounded=0;" edge="1" parent="6dELSMDstAYBvVttdxLl-1">
          <mxGeometry width="50" height="50" relative="1" as="geometry">
            <mxPoint x="509.71" y="180" as="sourcePoint" />
            <mxPoint x="510.21" y="210" as="targetPoint" />
          </mxGeometry>
        </mxCell>
        <mxCell id="6dELSMDstAYBvVttdxLl-33" value="" style="endArrow=classic;html=1;rounded=0;" edge="1" parent="6dELSMDstAYBvVttdxLl-1">
          <mxGeometry width="50" height="50" relative="1" as="geometry">
            <mxPoint x="509.71" y="240" as="sourcePoint" />
            <mxPoint x="510.21" y="270" as="targetPoint" />
          </mxGeometry>
        </mxCell>
        <mxCell id="6dELSMDstAYBvVttdxLl-34" value="แก้ไขโจทย์ปัญหา" style="swimlane;fontFamily=Sarabun;fontSource=https%3A%2F%2Ffonts.googleapis.com%2Fcss%3Ffamily%3DSarabun;" vertex="1" parent="1">
          <mxGeometry x="92.5" y="590" width="637.5" height="2390" as="geometry" />
        </mxCell>
        <mxCell id="6dELSMDstAYBvVttdxLl-70" style="edgeStyle=orthogonalEdgeStyle;rounded=0;orthogonalLoop=1;jettySize=auto;html=1;entryX=0.5;entryY=0;entryDx=0;entryDy=0;" edge="1" parent="6dELSMDstAYBvVttdxLl-34" source="6dELSMDstAYBvVttdxLl-35" target="6dELSMDstAYBvVttdxLl-68">
          <mxGeometry relative="1" as="geometry">
            <mxPoint x="320" y="100" as="targetPoint" />
          </mxGeometry>
        </mxCell>
        <mxCell id="6dELSMDstAYBvVttdxLl-35" value="&lt;font data-font-src=&quot;https://fonts.googleapis.com/css?family=Sarabun&quot; face=&quot;Sarabun&quot;&gt;เริ่มต้น&lt;/font&gt;" style="ellipse;whiteSpace=wrap;html=1;" vertex="1" parent="6dELSMDstAYBvVttdxLl-34">
          <mxGeometry x="255" y="40" width="130" height="30" as="geometry" />
        </mxCell>
        <mxCell id="6dELSMDstAYBvVttdxLl-36" value="&lt;font face=&quot;Sarabun&quot;&gt;สิ้นสุด&lt;/font&gt;" style="ellipse;whiteSpace=wrap;html=1;" vertex="1" parent="6dELSMDstAYBvVttdxLl-34">
          <mxGeometry x="253.75" y="2330" width="130" height="30" as="geometry" />
        </mxCell>
        <mxCell id="6dELSMDstAYBvVttdxLl-72" style="edgeStyle=orthogonalEdgeStyle;rounded=0;orthogonalLoop=1;jettySize=auto;html=1;entryX=0.5;entryY=0;entryDx=0;entryDy=0;" edge="1" parent="6dELSMDstAYBvVttdxLl-34" source="6dELSMDstAYBvVttdxLl-41" target="6dELSMDstAYBvVttdxLl-43">
          <mxGeometry relative="1" as="geometry" />
        </mxCell>
        <mxCell id="6dELSMDstAYBvVttdxLl-41" value="&lt;div&gt;&lt;br&gt;&lt;/div&gt;1.เลือกประเภทงาน&lt;div&gt;2.โพสหางานในเว็บไซต์&lt;div&gt;3.แนะนำโปรไฟล์ตัวเอง&lt;/div&gt;&lt;/div&gt;" style="shape=parallelogram;perimeter=parallelogramPerimeter;whiteSpace=wrap;html=1;fixedSize=1;" vertex="1" parent="6dELSMDstAYBvVttdxLl-34">
          <mxGeometry x="230" y="170" width="180" height="60" as="geometry" />
        </mxCell>
        <mxCell id="6dELSMDstAYBvVttdxLl-46" style="edgeStyle=orthogonalEdgeStyle;rounded=0;orthogonalLoop=1;jettySize=auto;html=1;exitX=1;exitY=0.5;exitDx=0;exitDy=0;" edge="1" parent="6dELSMDstAYBvVttdxLl-34" source="6dELSMDstAYBvVttdxLl-43">
          <mxGeometry relative="1" as="geometry">
            <mxPoint x="427.5" y="329.7586206896551" as="targetPoint" />
          </mxGeometry>
        </mxCell>
        <mxCell id="6dELSMDstAYBvVttdxLl-47" value="ไม่ได้ / ไม่ถูกใจ" style="edgeLabel;html=1;align=center;verticalAlign=middle;resizable=0;points=[];" vertex="1" connectable="0" parent="6dELSMDstAYBvVttdxLl-46">
          <mxGeometry x="0.857" y="1" relative="1" as="geometry">
            <mxPoint x="4" as="offset" />
          </mxGeometry>
        </mxCell>
        <mxCell id="6dELSMDstAYBvVttdxLl-54" style="edgeStyle=orthogonalEdgeStyle;rounded=0;orthogonalLoop=1;jettySize=auto;html=1;entryX=0.5;entryY=0;entryDx=0;entryDy=0;" edge="1" parent="6dELSMDstAYBvVttdxLl-34" source="6dELSMDstAYBvVttdxLl-43" target="6dELSMDstAYBvVttdxLl-51">
          <mxGeometry relative="1" as="geometry" />
        </mxCell>
        <mxCell id="6dELSMDstAYBvVttdxLl-73" value="ถูกใจ" style="edgeLabel;html=1;align=center;verticalAlign=middle;resizable=0;points=[];" vertex="1" connectable="0" parent="6dELSMDstAYBvVttdxLl-54">
          <mxGeometry x="-0.2148" y="-1" relative="1" as="geometry">
            <mxPoint as="offset" />
          </mxGeometry>
        </mxCell>
        <mxCell id="6dELSMDstAYBvVttdxLl-43" value="ได้ / ถูกใจ" style="rhombus;whiteSpace=wrap;html=1;" vertex="1" parent="6dELSMDstAYBvVttdxLl-34">
          <mxGeometry x="270" y="290" width="100" height="80" as="geometry" />
        </mxCell>
        <mxCell id="6dELSMDstAYBvVttdxLl-48" value="" style="endArrow=none;html=1;rounded=0;" edge="1" parent="6dELSMDstAYBvVttdxLl-34">
          <mxGeometry width="50" height="50" relative="1" as="geometry">
            <mxPoint x="467.5" y="330" as="sourcePoint" />
            <mxPoint x="507.5" y="120" as="targetPoint" />
            <Array as="points">
              <mxPoint x="507.5" y="330.14" />
            </Array>
          </mxGeometry>
        </mxCell>
        <mxCell id="6dELSMDstAYBvVttdxLl-71" style="edgeStyle=orthogonalEdgeStyle;rounded=0;orthogonalLoop=1;jettySize=auto;html=1;" edge="1" parent="6dELSMDstAYBvVttdxLl-34" source="6dELSMDstAYBvVttdxLl-68" target="6dELSMDstAYBvVttdxLl-41">
          <mxGeometry relative="1" as="geometry" />
        </mxCell>
        <mxCell id="6dELSMDstAYBvVttdxLl-68" value="" style="ellipse;whiteSpace=wrap;html=1;" vertex="1" parent="6dELSMDstAYBvVttdxLl-34">
          <mxGeometry x="310" y="110" width="20" height="20" as="geometry" />
        </mxCell>
        <mxCell id="6dELSMDstAYBvVttdxLl-67" style="edgeStyle=orthogonalEdgeStyle;rounded=0;orthogonalLoop=1;jettySize=auto;html=1;entryX=0.5;entryY=0;entryDx=0;entryDy=0;" edge="1" parent="6dELSMDstAYBvVttdxLl-34" source="6dELSMDstAYBvVttdxLl-42" target="6dELSMDstAYBvVttdxLl-50">
          <mxGeometry relative="1" as="geometry" />
        </mxCell>
        <mxCell id="6dELSMDstAYBvVttdxLl-42" value="รับงานจากลูกค้า&lt;div&gt;1.ข้อเสนอของลูกค้า&lt;/div&gt;&lt;div&gt;2.ข้อเสนอจากผู้พัฒนาสู่ลูกค้า&lt;/div&gt;" style="whiteSpace=wrap;html=1;" vertex="1" parent="6dELSMDstAYBvVttdxLl-34">
          <mxGeometry x="240" y="490" width="160" height="60" as="geometry" />
        </mxCell>
        <mxCell id="6dELSMDstAYBvVttdxLl-65" style="edgeStyle=orthogonalEdgeStyle;rounded=0;orthogonalLoop=1;jettySize=auto;html=1;" edge="1" parent="6dELSMDstAYBvVttdxLl-34" source="6dELSMDstAYBvVttdxLl-50">
          <mxGeometry relative="1" as="geometry">
            <mxPoint x="320" y="750" as="targetPoint" />
          </mxGeometry>
        </mxCell>
        <mxCell id="6dELSMDstAYBvVttdxLl-66" value="ได้" style="edgeLabel;html=1;align=center;verticalAlign=middle;resizable=0;points=[];" vertex="1" connectable="0" parent="6dELSMDstAYBvVttdxLl-65">
          <mxGeometry x="0.038" relative="1" as="geometry">
            <mxPoint as="offset" />
          </mxGeometry>
        </mxCell>
        <mxCell id="6dELSMDstAYBvVttdxLl-50" value="ตกลงได้" style="rhombus;whiteSpace=wrap;html=1;" vertex="1" parent="6dELSMDstAYBvVttdxLl-34">
          <mxGeometry x="280" y="590" width="80" height="80" as="geometry" />
        </mxCell>
        <mxCell id="6dELSMDstAYBvVttdxLl-55" style="edgeStyle=orthogonalEdgeStyle;rounded=0;orthogonalLoop=1;jettySize=auto;html=1;entryX=0.5;entryY=0;entryDx=0;entryDy=0;" edge="1" parent="6dELSMDstAYBvVttdxLl-34" source="6dELSMDstAYBvVttdxLl-51" target="6dELSMDstAYBvVttdxLl-42">
          <mxGeometry relative="1" as="geometry" />
        </mxCell>
        <mxCell id="6dELSMDstAYBvVttdxLl-51" value="" style="ellipse;whiteSpace=wrap;html=1;" vertex="1" parent="6dELSMDstAYBvVttdxLl-34">
          <mxGeometry x="310" y="440" width="20" height="20" as="geometry" />
        </mxCell>
        <mxCell id="6dELSMDstAYBvVttdxLl-60" value="" style="endArrow=none;html=1;rounded=0;" edge="1" parent="6dELSMDstAYBvVttdxLl-34">
          <mxGeometry width="50" height="50" relative="1" as="geometry">
            <mxPoint x="357.5" y="630" as="sourcePoint" />
            <mxPoint x="507.5" y="630" as="targetPoint" />
          </mxGeometry>
        </mxCell>
        <mxCell id="6dELSMDstAYBvVttdxLl-62" value="" style="endArrow=none;html=1;rounded=0;" edge="1" parent="6dELSMDstAYBvVttdxLl-34">
          <mxGeometry width="50" height="50" relative="1" as="geometry">
            <mxPoint x="507.5" y="630" as="sourcePoint" />
            <mxPoint x="507.5" y="450" as="targetPoint" />
          </mxGeometry>
        </mxCell>
        <mxCell id="6dELSMDstAYBvVttdxLl-63" value="" style="edgeStyle=none;orthogonalLoop=1;jettySize=auto;html=1;rounded=0;entryX=1;entryY=0.5;entryDx=0;entryDy=0;" edge="1" parent="6dELSMDstAYBvVttdxLl-34" target="6dELSMDstAYBvVttdxLl-51">
          <mxGeometry width="100" relative="1" as="geometry">
            <mxPoint x="507.5" y="450" as="sourcePoint" />
            <mxPoint x="487.5" y="450" as="targetPoint" />
            <Array as="points" />
          </mxGeometry>
        </mxCell>
        <mxCell id="6dELSMDstAYBvVttdxLl-64" value="ไม่ได้" style="text;html=1;align=center;verticalAlign=middle;resizable=0;points=[];autosize=1;strokeColor=none;fillColor=none;" vertex="1" parent="6dELSMDstAYBvVttdxLl-34">
          <mxGeometry x="372.5" y="598" width="50" height="30" as="geometry" />
        </mxCell>
        <mxCell id="6dELSMDstAYBvVttdxLl-74" value="เซ็นสัญญารับงาน" style="rounded=0;whiteSpace=wrap;html=1;" vertex="1" parent="6dELSMDstAYBvVttdxLl-34">
          <mxGeometry x="260" y="750" width="120" height="60" as="geometry" />
        </mxCell>
        <mxCell id="6dELSMDstAYBvVttdxLl-78" style="edgeStyle=orthogonalEdgeStyle;rounded=0;orthogonalLoop=1;jettySize=auto;html=1;" edge="1" parent="6dELSMDstAYBvVttdxLl-34" source="6dELSMDstAYBvVttdxLl-76" target="6dELSMDstAYBvVttdxLl-77">
          <mxGeometry relative="1" as="geometry" />
        </mxCell>
        <mxCell id="6dELSMDstAYBvVttdxLl-76" value="ทำ Demo" style="rounded=0;whiteSpace=wrap;html=1;" vertex="1" parent="6dELSMDstAYBvVttdxLl-34">
          <mxGeometry x="260" y="940" width="120" height="60" as="geometry" />
        </mxCell>
        <mxCell id="6dELSMDstAYBvVttdxLl-75" style="edgeStyle=orthogonalEdgeStyle;rounded=0;orthogonalLoop=1;jettySize=auto;html=1;" edge="1" parent="6dELSMDstAYBvVttdxLl-34" source="6dELSMDstAYBvVttdxLl-91" target="6dELSMDstAYBvVttdxLl-76">
          <mxGeometry relative="1" as="geometry">
            <mxPoint x="320" y="870" as="targetPoint" />
          </mxGeometry>
        </mxCell>
        <mxCell id="6dELSMDstAYBvVttdxLl-94" style="edgeStyle=orthogonalEdgeStyle;rounded=0;orthogonalLoop=1;jettySize=auto;html=1;" edge="1" parent="6dELSMDstAYBvVttdxLl-34" source="6dELSMDstAYBvVttdxLl-77">
          <mxGeometry relative="1" as="geometry">
            <mxPoint x="320" y="1210" as="targetPoint" />
          </mxGeometry>
        </mxCell>
        <mxCell id="6dELSMDstAYBvVttdxLl-95" value="ถูกใจ" style="edgeLabel;html=1;align=center;verticalAlign=middle;resizable=0;points=[];" vertex="1" connectable="0" parent="6dELSMDstAYBvVttdxLl-94">
          <mxGeometry x="-0.1221" y="-1" relative="1" as="geometry">
            <mxPoint as="offset" />
          </mxGeometry>
        </mxCell>
        <mxCell id="6dELSMDstAYBvVttdxLl-77" value="ถูกใจหรือไม่" style="rhombus;whiteSpace=wrap;html=1;" vertex="1" parent="6dELSMDstAYBvVttdxLl-34">
          <mxGeometry x="280" y="1050" width="80" height="60" as="geometry" />
        </mxCell>
        <mxCell id="6dELSMDstAYBvVttdxLl-85" value="" style="endArrow=none;html=1;rounded=0;exitX=1;exitY=0.5;exitDx=0;exitDy=0;" edge="1" parent="6dELSMDstAYBvVttdxLl-34" source="6dELSMDstAYBvVttdxLl-77">
          <mxGeometry width="50" height="50" relative="1" as="geometry">
            <mxPoint x="357.5" y="1090" as="sourcePoint" />
            <mxPoint x="507.5" y="1080" as="targetPoint" />
          </mxGeometry>
        </mxCell>
        <mxCell id="6dELSMDstAYBvVttdxLl-86" value="ไม่" style="edgeLabel;html=1;align=center;verticalAlign=middle;resizable=0;points=[];" vertex="1" connectable="0" parent="6dELSMDstAYBvVttdxLl-85">
          <mxGeometry x="-0.0441" y="-2" relative="1" as="geometry">
            <mxPoint as="offset" />
          </mxGeometry>
        </mxCell>
        <mxCell id="6dELSMDstAYBvVttdxLl-93" style="edgeStyle=orthogonalEdgeStyle;rounded=0;orthogonalLoop=1;jettySize=auto;html=1;entryX=1;entryY=0.5;entryDx=0;entryDy=0;" edge="1" parent="6dELSMDstAYBvVttdxLl-34" source="6dELSMDstAYBvVttdxLl-89" target="6dELSMDstAYBvVttdxLl-91">
          <mxGeometry relative="1" as="geometry">
            <Array as="points">
              <mxPoint x="508" y="870" />
            </Array>
          </mxGeometry>
        </mxCell>
        <mxCell id="6dELSMDstAYBvVttdxLl-89" value="รับงานจากลูกค้า&lt;div&gt;1.ข้อเสนอของลูกค้า&lt;/div&gt;&lt;div&gt;2.ข้อเสนอจากผู้พัฒนาสู่ลูกค้า&lt;/div&gt;" style="rounded=0;whiteSpace=wrap;html=1;" vertex="1" parent="6dELSMDstAYBvVttdxLl-34">
          <mxGeometry x="457.5" y="940" width="120" height="60" as="geometry" />
        </mxCell>
        <mxCell id="6dELSMDstAYBvVttdxLl-90" value="" style="endArrow=classic;html=1;rounded=0;entryX=0.417;entryY=1;entryDx=0;entryDy=0;entryPerimeter=0;" edge="1" parent="6dELSMDstAYBvVttdxLl-34" target="6dELSMDstAYBvVttdxLl-89">
          <mxGeometry width="50" height="50" relative="1" as="geometry">
            <mxPoint x="507.5" y="1080" as="sourcePoint" />
            <mxPoint x="557.5" y="1030" as="targetPoint" />
          </mxGeometry>
        </mxCell>
        <mxCell id="6dELSMDstAYBvVttdxLl-91" value="" style="ellipse;whiteSpace=wrap;html=1;aspect=fixed;" vertex="1" parent="6dELSMDstAYBvVttdxLl-34">
          <mxGeometry x="310" y="860" width="20" height="20" as="geometry" />
        </mxCell>
        <mxCell id="6dELSMDstAYBvVttdxLl-92" value="" style="edgeStyle=orthogonalEdgeStyle;rounded=0;orthogonalLoop=1;jettySize=auto;html=1;" edge="1" parent="6dELSMDstAYBvVttdxLl-34" source="6dELSMDstAYBvVttdxLl-74" target="6dELSMDstAYBvVttdxLl-91">
          <mxGeometry relative="1" as="geometry">
            <mxPoint x="412.5" y="1520" as="targetPoint" />
            <mxPoint x="412.5" y="1390" as="sourcePoint" />
          </mxGeometry>
        </mxCell>
        <mxCell id="6dELSMDstAYBvVttdxLl-98" style="edgeStyle=orthogonalEdgeStyle;rounded=0;orthogonalLoop=1;jettySize=auto;html=1;" edge="1" parent="6dELSMDstAYBvVttdxLl-34" source="6dELSMDstAYBvVttdxLl-96">
          <mxGeometry relative="1" as="geometry">
            <mxPoint x="487.5" y="1240" as="targetPoint" />
          </mxGeometry>
        </mxCell>
        <mxCell id="6dELSMDstAYBvVttdxLl-102" style="edgeStyle=orthogonalEdgeStyle;rounded=0;orthogonalLoop=1;jettySize=auto;html=1;" edge="1" parent="6dELSMDstAYBvVttdxLl-34" source="6dELSMDstAYBvVttdxLl-96" target="6dELSMDstAYBvVttdxLl-101">
          <mxGeometry relative="1" as="geometry" />
        </mxCell>
        <mxCell id="6dELSMDstAYBvVttdxLl-96" value="ทำชิ้นงาน v.1&lt;div&gt;ปรับปรุงพัฒนา&lt;/div&gt;" style="rounded=0;whiteSpace=wrap;html=1;" vertex="1" parent="6dELSMDstAYBvVttdxLl-34">
          <mxGeometry x="260" y="1210" width="120" height="60" as="geometry" />
        </mxCell>
        <mxCell id="6dELSMDstAYBvVttdxLl-100" style="edgeStyle=orthogonalEdgeStyle;rounded=0;orthogonalLoop=1;jettySize=auto;html=1;entryX=1;entryY=0.5;entryDx=0;entryDy=0;" edge="1" parent="6dELSMDstAYBvVttdxLl-34" source="6dELSMDstAYBvVttdxLl-99" target="6dELSMDstAYBvVttdxLl-101">
          <mxGeometry relative="1" as="geometry">
            <mxPoint x="337.5" y="1340" as="targetPoint" />
            <Array as="points">
              <mxPoint x="548" y="1340" />
            </Array>
          </mxGeometry>
        </mxCell>
        <mxCell id="6dELSMDstAYBvVttdxLl-99" value="เบิกเงินครั้งที่1" style="rounded=0;whiteSpace=wrap;html=1;" vertex="1" parent="6dELSMDstAYBvVttdxLl-34">
          <mxGeometry x="487.5" y="1210" width="120" height="60" as="geometry" />
        </mxCell>
        <mxCell id="6dELSMDstAYBvVttdxLl-103" style="edgeStyle=orthogonalEdgeStyle;rounded=0;orthogonalLoop=1;jettySize=auto;html=1;" edge="1" parent="6dELSMDstAYBvVttdxLl-34" source="6dELSMDstAYBvVttdxLl-101">
          <mxGeometry relative="1" as="geometry">
            <mxPoint x="320" y="1380" as="targetPoint" />
          </mxGeometry>
        </mxCell>
        <mxCell id="6dELSMDstAYBvVttdxLl-101" value="" style="ellipse;whiteSpace=wrap;html=1;aspect=fixed;" vertex="1" parent="6dELSMDstAYBvVttdxLl-34">
          <mxGeometry x="310" y="1330" width="20" height="20" as="geometry" />
        </mxCell>
        <mxCell id="6dELSMDstAYBvVttdxLl-110" style="edgeStyle=orthogonalEdgeStyle;rounded=0;orthogonalLoop=1;jettySize=auto;html=1;entryX=0.5;entryY=1;entryDx=0;entryDy=0;" edge="1" parent="6dELSMDstAYBvVttdxLl-34" source="6dELSMDstAYBvVttdxLl-105" target="6dELSMDstAYBvVttdxLl-108">
          <mxGeometry relative="1" as="geometry">
            <mxPoint x="117.5" y="1420" as="targetPoint" />
            <Array as="points">
              <mxPoint x="199" y="1420" />
              <mxPoint x="128" y="1421" />
            </Array>
          </mxGeometry>
        </mxCell>
        <mxCell id="6dELSMDstAYBvVttdxLl-111" value="ไม่" style="edgeLabel;html=1;align=center;verticalAlign=middle;resizable=0;points=[];" vertex="1" connectable="0" parent="6dELSMDstAYBvVttdxLl-110">
          <mxGeometry x="-0.3061" y="-1" relative="1" as="geometry">
            <mxPoint as="offset" />
          </mxGeometry>
        </mxCell>
        <mxCell id="6dELSMDstAYBvVttdxLl-112" style="edgeStyle=orthogonalEdgeStyle;rounded=0;orthogonalLoop=1;jettySize=auto;html=1;" edge="1" parent="6dELSMDstAYBvVttdxLl-34" source="6dELSMDstAYBvVttdxLl-105">
          <mxGeometry relative="1" as="geometry">
            <mxPoint x="320" y="1540" as="targetPoint" />
          </mxGeometry>
        </mxCell>
        <mxCell id="6dELSMDstAYBvVttdxLl-114" value="ถูกใจ" style="edgeLabel;html=1;align=center;verticalAlign=middle;resizable=0;points=[];" vertex="1" connectable="0" parent="6dELSMDstAYBvVttdxLl-112">
          <mxGeometry x="-0.0873" relative="1" as="geometry">
            <mxPoint as="offset" />
          </mxGeometry>
        </mxCell>
        <mxCell id="6dELSMDstAYBvVttdxLl-105" value="ถูกใจหรือไม่" style="rhombus;whiteSpace=wrap;html=1;" vertex="1" parent="6dELSMDstAYBvVttdxLl-34">
          <mxGeometry x="280" y="1380" width="80" height="80" as="geometry" />
        </mxCell>
        <mxCell id="6dELSMDstAYBvVttdxLl-109" style="edgeStyle=orthogonalEdgeStyle;rounded=0;orthogonalLoop=1;jettySize=auto;html=1;" edge="1" parent="6dELSMDstAYBvVttdxLl-34" source="6dELSMDstAYBvVttdxLl-108">
          <mxGeometry relative="1" as="geometry">
            <mxPoint x="257.5" y="1240" as="targetPoint" />
            <Array as="points">
              <mxPoint x="128" y="1240" />
            </Array>
          </mxGeometry>
        </mxCell>
        <mxCell id="6dELSMDstAYBvVttdxLl-108" value="รับงานจากลูกค้า&lt;div&gt;1.ข้อเสนอของลูกค้า&lt;/div&gt;&lt;div&gt;2.ข้อเสนอจากผู้พัฒนาสู่ลูกค้า&lt;/div&gt;" style="rounded=0;whiteSpace=wrap;html=1;" vertex="1" parent="6dELSMDstAYBvVttdxLl-34">
          <mxGeometry x="67.5" y="1270" width="120" height="60" as="geometry" />
        </mxCell>
        <mxCell id="6dELSMDstAYBvVttdxLl-119" style="edgeStyle=orthogonalEdgeStyle;rounded=0;orthogonalLoop=1;jettySize=auto;html=1;" edge="1" parent="6dELSMDstAYBvVttdxLl-34" source="6dELSMDstAYBvVttdxLl-117" target="6dELSMDstAYBvVttdxLl-118">
          <mxGeometry relative="1" as="geometry" />
        </mxCell>
        <mxCell id="6dELSMDstAYBvVttdxLl-117" value="ทำชิ้นงาน v.2&lt;div&gt;ปรับปรุงพัฒนา&lt;/div&gt;" style="rounded=0;whiteSpace=wrap;html=1;" vertex="1" parent="6dELSMDstAYBvVttdxLl-34">
          <mxGeometry x="258.75" y="1540" width="120" height="60" as="geometry" />
        </mxCell>
        <mxCell id="6dELSMDstAYBvVttdxLl-125" style="edgeStyle=orthogonalEdgeStyle;rounded=0;orthogonalLoop=1;jettySize=auto;html=1;" edge="1" parent="6dELSMDstAYBvVttdxLl-34" source="6dELSMDstAYBvVttdxLl-118">
          <mxGeometry relative="1" as="geometry">
            <mxPoint x="318.75" y="1790" as="targetPoint" />
          </mxGeometry>
        </mxCell>
        <mxCell id="6dELSMDstAYBvVttdxLl-127" value="ถูกใจ" style="edgeLabel;html=1;align=center;verticalAlign=middle;resizable=0;points=[];" vertex="1" connectable="0" parent="6dELSMDstAYBvVttdxLl-125">
          <mxGeometry x="-0.2581" relative="1" as="geometry">
            <mxPoint as="offset" />
          </mxGeometry>
        </mxCell>
        <mxCell id="6dELSMDstAYBvVttdxLl-118" value="ถูกใจหรือไม่" style="rhombus;whiteSpace=wrap;html=1;" vertex="1" parent="6dELSMDstAYBvVttdxLl-34">
          <mxGeometry x="278.75" y="1650" width="80" height="80" as="geometry" />
        </mxCell>
        <mxCell id="6dELSMDstAYBvVttdxLl-123" value="" style="edgeStyle=orthogonalEdgeStyle;rounded=0;orthogonalLoop=1;jettySize=auto;html=1;" edge="1" parent="6dELSMDstAYBvVttdxLl-34" source="6dELSMDstAYBvVttdxLl-122" target="6dELSMDstAYBvVttdxLl-117">
          <mxGeometry relative="1" as="geometry" />
        </mxCell>
        <mxCell id="6dELSMDstAYBvVttdxLl-122" value="รับงานจากลูกค้า&lt;div&gt;1.ข้อเสนอของลูกค้า&lt;/div&gt;&lt;div&gt;2.ข้อเสนอจากผู้พัฒนาสู่ลูกค้า&lt;/div&gt;" style="rounded=0;whiteSpace=wrap;html=1;" vertex="1" parent="6dELSMDstAYBvVttdxLl-34">
          <mxGeometry x="467.5" y="1540" width="120" height="60" as="geometry" />
        </mxCell>
        <mxCell id="6dELSMDstAYBvVttdxLl-120" style="edgeStyle=orthogonalEdgeStyle;rounded=0;orthogonalLoop=1;jettySize=auto;html=1;" edge="1" parent="6dELSMDstAYBvVttdxLl-34" source="6dELSMDstAYBvVttdxLl-118" target="6dELSMDstAYBvVttdxLl-122">
          <mxGeometry relative="1" as="geometry">
            <mxPoint x="477.5" y="1690" as="targetPoint" />
          </mxGeometry>
        </mxCell>
        <mxCell id="6dELSMDstAYBvVttdxLl-121" value="ไม่" style="edgeLabel;html=1;align=center;verticalAlign=middle;resizable=0;points=[];" vertex="1" connectable="0" parent="6dELSMDstAYBvVttdxLl-120">
          <mxGeometry x="-0.079" relative="1" as="geometry">
            <mxPoint as="offset" />
          </mxGeometry>
        </mxCell>
        <mxCell id="6dELSMDstAYBvVttdxLl-128" value="ชิ้นงานขั้นสุดท้ายพร้อมส่ง" style="whiteSpace=wrap;html=1;" vertex="1" parent="6dELSMDstAYBvVttdxLl-34">
          <mxGeometry x="258.75" y="1790" width="120" height="60" as="geometry" />
        </mxCell>
        <mxCell id="6dELSMDstAYBvVttdxLl-130" value="ส่งงาน" style="rounded=0;whiteSpace=wrap;html=1;" vertex="1" parent="6dELSMDstAYBvVttdxLl-34">
          <mxGeometry x="258.75" y="1919.9999999999995" width="120" height="60" as="geometry" />
        </mxCell>
        <mxCell id="6dELSMDstAYBvVttdxLl-129" style="edgeStyle=orthogonalEdgeStyle;rounded=0;orthogonalLoop=1;jettySize=auto;html=1;" edge="1" parent="6dELSMDstAYBvVttdxLl-34" source="6dELSMDstAYBvVttdxLl-128" target="6dELSMDstAYBvVttdxLl-130">
          <mxGeometry relative="1" as="geometry">
            <mxPoint x="318.75" y="1909.9999999999995" as="targetPoint" />
          </mxGeometry>
        </mxCell>
        <mxCell id="6dELSMDstAYBvVttdxLl-133" value="รับเงิน ขอบคุณครับ" style="rounded=0;whiteSpace=wrap;html=1;" vertex="1" parent="6dELSMDstAYBvVttdxLl-34">
          <mxGeometry x="258.75" y="2039.9999999999995" width="120" height="60" as="geometry" />
        </mxCell>
        <mxCell id="6dELSMDstAYBvVttdxLl-131" style="edgeStyle=orthogonalEdgeStyle;rounded=0;orthogonalLoop=1;jettySize=auto;html=1;" edge="1" parent="6dELSMDstAYBvVttdxLl-34" source="6dELSMDstAYBvVttdxLl-130" target="6dELSMDstAYBvVttdxLl-133">
          <mxGeometry relative="1" as="geometry">
            <mxPoint x="318.75" y="2029.9999999999995" as="targetPoint" />
          </mxGeometry>
        </mxCell>
        <mxCell id="6dELSMDstAYBvVttdxLl-136" style="edgeStyle=orthogonalEdgeStyle;rounded=0;orthogonalLoop=1;jettySize=auto;html=1;" edge="1" parent="6dELSMDstAYBvVttdxLl-34" source="6dELSMDstAYBvVttdxLl-135">
          <mxGeometry relative="1" as="geometry">
            <mxPoint x="457.5" y="2189.9999999999995" as="targetPoint" />
          </mxGeometry>
        </mxCell>
        <mxCell id="6dELSMDstAYBvVttdxLl-141" value="บัค ล่ม" style="edgeLabel;html=1;align=center;verticalAlign=middle;resizable=0;points=[];" vertex="1" connectable="0" parent="6dELSMDstAYBvVttdxLl-136">
          <mxGeometry x="-0.1074" y="1" relative="1" as="geometry">
            <mxPoint as="offset" />
          </mxGeometry>
        </mxCell>
        <mxCell id="6dELSMDstAYBvVttdxLl-137" style="edgeStyle=orthogonalEdgeStyle;rounded=0;orthogonalLoop=1;jettySize=auto;html=1;" edge="1" parent="6dELSMDstAYBvVttdxLl-34" source="6dELSMDstAYBvVttdxLl-135">
          <mxGeometry relative="1" as="geometry">
            <mxPoint x="318.5" y="2280" as="targetPoint" />
          </mxGeometry>
        </mxCell>
        <mxCell id="6dELSMDstAYBvVttdxLl-138" value="ไม่บัค ไม่ล่ม" style="edgeLabel;html=1;align=center;verticalAlign=middle;resizable=0;points=[];" vertex="1" connectable="0" parent="6dELSMDstAYBvVttdxLl-137">
          <mxGeometry x="-0.162" relative="1" as="geometry">
            <mxPoint as="offset" />
          </mxGeometry>
        </mxCell>
        <mxCell id="6dELSMDstAYBvVttdxLl-135" value="เกิดบัค / ระบบล่ม" style="rhombus;whiteSpace=wrap;html=1;" vertex="1" parent="6dELSMDstAYBvVttdxLl-34">
          <mxGeometry x="278.75" y="2149.9999999999995" width="80" height="80" as="geometry" />
        </mxCell>
        <mxCell id="6dELSMDstAYBvVttdxLl-134" style="edgeStyle=orthogonalEdgeStyle;rounded=0;orthogonalLoop=1;jettySize=auto;html=1;" edge="1" parent="6dELSMDstAYBvVttdxLl-34" source="6dELSMDstAYBvVttdxLl-133" target="6dELSMDstAYBvVttdxLl-135">
          <mxGeometry relative="1" as="geometry">
            <mxPoint x="318.75" y="2139.9999999999995" as="targetPoint" />
          </mxGeometry>
        </mxCell>
        <mxCell id="6dELSMDstAYBvVttdxLl-139" value="" style="ellipse;whiteSpace=wrap;html=1;aspect=fixed;" vertex="1" parent="6dELSMDstAYBvVttdxLl-34">
          <mxGeometry x="308.75" y="2280" width="20" height="20" as="geometry" />
        </mxCell>
        <mxCell id="6dELSMDstAYBvVttdxLl-142" style="edgeStyle=orthogonalEdgeStyle;rounded=0;orthogonalLoop=1;jettySize=auto;html=1;entryX=1;entryY=0.5;entryDx=0;entryDy=0;" edge="1" parent="6dELSMDstAYBvVttdxLl-34" source="6dELSMDstAYBvVttdxLl-140" target="6dELSMDstAYBvVttdxLl-139">
          <mxGeometry relative="1" as="geometry">
            <mxPoint x="517.5" y="2289.9999999999995" as="targetPoint" />
            <Array as="points">
              <mxPoint x="508" y="2290" />
            </Array>
          </mxGeometry>
        </mxCell>
        <mxCell id="6dELSMDstAYBvVttdxLl-140" value="แก้" style="rounded=0;whiteSpace=wrap;html=1;" vertex="1" parent="6dELSMDstAYBvVttdxLl-34">
          <mxGeometry x="457.5" y="2160" width="120" height="60" as="geometry" />
        </mxCell>
        <mxCell id="6dELSMDstAYBvVttdxLl-143" value="" style="endArrow=classic;html=1;rounded=0;exitX=0.5;exitY=1;exitDx=0;exitDy=0;entryX=0.5;entryY=0;entryDx=0;entryDy=0;" edge="1" parent="6dELSMDstAYBvVttdxLl-34" source="6dELSMDstAYBvVttdxLl-139" target="6dELSMDstAYBvVttdxLl-36">
          <mxGeometry width="50" height="50" relative="1" as="geometry">
            <mxPoint x="317.5" y="2310" as="sourcePoint" />
            <mxPoint x="367.5" y="2260" as="targetPoint" />
          </mxGeometry>
        </mxCell>
        <mxCell id="6dELSMDstAYBvVttdxLl-37" value="&lt;font data-font-src=&quot;https://fonts.googleapis.com/css?family=Sarabun&quot; face=&quot;Sarabun&quot;&gt;โจทย์ปัญหา&lt;/font&gt;" style="swimlane;whiteSpace=wrap;html=1;" vertex="1" parent="1">
          <mxGeometry x="80" y="350" width="675" height="190" as="geometry" />
        </mxCell>
        <mxCell id="6dELSMDstAYBvVttdxLl-38" value="&lt;p style=&quot;line-height: 120%;&quot;&gt;&lt;font data-font-src=&quot;https://fonts.googleapis.com/css?family=Sarabun&quot; face=&quot;Sarabun&quot; style=&quot;font-size: 14px;&quot;&gt;&lt;b&gt;&lt;u&gt;โจทย์&lt;/u&gt;&lt;/b&gt; จงเขียน Flowchart เพื่ออธิบายกระบวนการในการรับงานทำเว็บไซต์จากลูกค้า&lt;br&gt;&amp;nbsp; &amp;nbsp; &amp;nbsp; &amp;nbsp; &amp;nbsp; (ดูตัวอย่างได้จากเว็บไซท์ https://www.fastwork.com)&lt;br&gt;&lt;/font&gt;&lt;br&gt;&lt;/p&gt;&lt;p style=&quot;line-height: 120%;&quot;&gt;&lt;font face=&quot;Sarabun&quot;&gt;&lt;b&gt;&lt;u&gt;หมายเหตุ&lt;/u&gt;&lt;/b&gt;&amp;nbsp;ควรมีขั้นตอนครบถ้วน เปรียบเสมือนตัวคุณเอง ที่กำลังอยากเริ่มต้นรับงานทำเว็บไซต์จากลูกค้าของคุณเอง&lt;br&gt;&amp;nbsp; &amp;nbsp; &amp;nbsp; &amp;nbsp; คุณจะต้องคำนึงถึงขั้นตอนทุกอย่างให้รอบคอบตั้งแต่การโพสหางาน การพูดคุยเพื่อคัดกรองลูกค้า&lt;br&gt;&amp;nbsp; &amp;nbsp; &amp;nbsp; &amp;nbsp; การพูดคุยเรื่องความต้องการของลูกค้าเป็นข้อๆให้ชัดเจน การเซ็นต์สัญญารับงาน การรับเงินล่วงหน้าก่อน ฯลฯ&lt;/font&gt;&lt;/p&gt;&lt;p style=&quot;line-height: 120%;&quot;&gt;&lt;font face=&quot;Sarabun&quot;&gt;&lt;br&gt;&lt;/font&gt;&lt;/p&gt;" style="text;html=1;align=left;verticalAlign=top;resizable=0;points=[];autosize=1;strokeColor=none;fillColor=none;fontSize=14;" vertex="1" parent="6dELSMDstAYBvVttdxLl-37">
          <mxGeometry x="15" y="20" width="660" height="200" as="geometry" />
        </mxCell>
        <mxCell id="6dELSMDstAYBvVttdxLl-49" value="" style="edgeStyle=none;orthogonalLoop=1;jettySize=auto;html=1;rounded=0;entryX=1;entryY=0.5;entryDx=0;entryDy=0;" edge="1" parent="1" target="6dELSMDstAYBvVttdxLl-68">
          <mxGeometry width="100" relative="1" as="geometry">
            <mxPoint x="600" y="710" as="sourcePoint" />
            <mxPoint x="440" y="680" as="targetPoint" />
            <Array as="points" />
          </mxGeometry>
        </mxCell>
      </root>
    </mxGraphModel>
  </diagram>
</mxfile>
